<mxfile host="Electron" agent="Mozilla/5.0 (Windows NT 10.0; Win64; x64) AppleWebKit/537.36 (KHTML, like Gecko) draw.io/26.0.4 Chrome/128.0.6613.186 Electron/32.2.5 Safari/537.36" version="26.0.4" pages="2">
  <diagram name="Context" id="VOO-ke_E5MUhAEmmoKk6">
    <mxGraphModel dx="1411" dy="818" grid="1" gridSize="10" guides="1" tooltips="1" connect="1" arrows="1" fold="1" page="1" pageScale="1" pageWidth="827" pageHeight="1169" math="0" shadow="0">
      <root>
        <mxCell id="0" />
        <mxCell id="1" parent="0" />
        <object placeholders="1" c4Name="Партнерский кол-центр" c4Type="Software System" c4Description="" label="&lt;font style=&quot;font-size: 16px&quot;&gt;&lt;b&gt;%c4Name%&lt;/b&gt;&lt;/font&gt;&lt;div&gt;[%c4Type%]&lt;/div&gt;&lt;br&gt;&lt;div&gt;&lt;font style=&quot;font-size: 11px&quot;&gt;&lt;font color=&quot;#cccccc&quot;&gt;%c4Description%&lt;/font&gt;&lt;/div&gt;" id="QLqF1LJBldQI-wPWbWfx-1">
          <mxCell style="rounded=1;whiteSpace=wrap;html=1;labelBackgroundColor=none;fillColor=#8C8496;fontColor=#ffffff;align=center;arcSize=10;strokeColor=#736782;metaEdit=1;resizable=0;points=[[0.25,0,0],[0.5,0,0],[0.75,0,0],[1,0.25,0],[1,0.5,0],[1,0.75,0],[0.75,1,0],[0.5,1,0],[0.25,1,0],[0,0.75,0],[0,0.5,0],[0,0.25,0]];" parent="1" vertex="1">
            <mxGeometry x="1080" y="70" width="240" height="120" as="geometry" />
          </mxCell>
        </object>
        <object placeholders="1" c4Name="АБС" c4Type="Software System" c4Description="Автоматизированная банковская система" label="&lt;font style=&quot;font-size: 16px&quot;&gt;&lt;b&gt;%c4Name%&lt;/b&gt;&lt;/font&gt;&lt;div&gt;[%c4Type%]&lt;/div&gt;&lt;br&gt;&lt;div&gt;&lt;font style=&quot;font-size: 11px&quot;&gt;&lt;font color=&quot;#cccccc&quot;&gt;%c4Description%&lt;/font&gt;&lt;/div&gt;" id="QLqF1LJBldQI-wPWbWfx-2">
          <mxCell style="rounded=1;whiteSpace=wrap;html=1;labelBackgroundColor=none;fillColor=#1061B0;fontColor=#ffffff;align=center;arcSize=10;strokeColor=#0D5091;metaEdit=1;resizable=0;points=[[0.25,0,0],[0.5,0,0],[0.75,0,0],[1,0.25,0],[1,0.5,0],[1,0.75,0],[0.75,1,0],[0.5,1,0],[0.25,1,0],[0,0.75,0],[0,0.5,0],[0,0.25,0]];" parent="1" vertex="1">
            <mxGeometry x="590" y="464" width="240" height="120" as="geometry" />
          </mxCell>
        </object>
        <object c4Name="Кол-центр" c4Type="Software System" label="&lt;font style=&quot;font-size: 16px&quot;&gt;&lt;b&gt;%c4Name%&lt;/b&gt;&lt;/font&gt;&lt;div&gt;[%c4Type%]&lt;/div&gt;&lt;br&gt;&lt;div&gt;&lt;font style=&quot;font-size: 11px&quot;&gt;&lt;font color=&quot;#cccccc&quot;&gt;%c4Description%&lt;/font&gt;&lt;/div&gt;" c4Description="" placeholders="1" id="QLqF1LJBldQI-wPWbWfx-3">
          <mxCell style="rounded=1;whiteSpace=wrap;html=1;labelBackgroundColor=none;fillColor=#1061B0;fontColor=#ffffff;align=center;arcSize=10;strokeColor=#0D5091;metaEdit=1;resizable=0;points=[[0.25,0,0],[0.5,0,0],[0.75,0,0],[1,0.25,0],[1,0.5,0],[1,0.75,0],[0.75,1,0],[0.5,1,0],[0.25,1,0],[0,0.75,0],[0,0.5,0],[0,0.25,0]];" parent="1" vertex="1">
            <mxGeometry x="1080" y="465" width="240" height="120" as="geometry" />
          </mxCell>
        </object>
        <object placeholders="1" c4Name="Менеджер депозитного бэк-офиса" c4Type="Person" c4Description="" label="&lt;font style=&quot;font-size: 16px&quot;&gt;&lt;b&gt;%c4Name%&lt;/b&gt;&lt;/font&gt;&lt;div&gt;[%c4Type%]&lt;/div&gt;&lt;br&gt;&lt;div&gt;&lt;font style=&quot;font-size: 11px&quot;&gt;&lt;font color=&quot;#cccccc&quot;&gt;%c4Description%&lt;/font&gt;&lt;/div&gt;" id="QLqF1LJBldQI-wPWbWfx-11">
          <mxCell style="html=1;fontSize=11;dashed=0;whiteSpace=wrap;fillColor=#083F75;strokeColor=#06315C;fontColor=#ffffff;shape=mxgraph.c4.person2;align=center;metaEdit=1;points=[[0.5,0,0],[1,0.5,0],[1,0.75,0],[0.75,1,0],[0.5,1,0],[0.25,1,0],[0,0.75,0],[0,0.5,0]];resizable=0;" parent="1" vertex="1">
            <mxGeometry x="610" y="820" width="200" height="180" as="geometry" />
          </mxCell>
        </object>
        <object placeholders="1" c4Type="Relationship" c4Description="Формирование и отправка&#xa;информации по депозитам" label="&lt;div style=&quot;text-align: left&quot;&gt;&lt;div style=&quot;text-align: center&quot;&gt;&lt;b&gt;%c4Description%&lt;/b&gt;&lt;/div&gt;" id="QLqF1LJBldQI-wPWbWfx-24">
          <mxCell style="endArrow=blockThin;html=1;fontSize=10;fontColor=#404040;strokeWidth=1;endFill=1;strokeColor=#828282;elbow=vertical;metaEdit=1;endSize=14;startSize=14;jumpStyle=arc;jumpSize=16;rounded=0;edgeStyle=orthogonalEdgeStyle;exitX=0.5;exitY=0;exitDx=0;exitDy=0;exitPerimeter=0;entryX=0.5;entryY=1;entryDx=0;entryDy=0;entryPerimeter=0;" parent="1" source="QLqF1LJBldQI-wPWbWfx-11" target="QLqF1LJBldQI-wPWbWfx-2" edge="1">
            <mxGeometry width="240" relative="1" as="geometry">
              <mxPoint x="530" y="810" as="sourcePoint" />
              <mxPoint x="770" y="810" as="targetPoint" />
            </mxGeometry>
          </mxCell>
        </object>
        <object placeholders="1" c4Type="Relationship" c4Description="Передача ставок по депозитам" label="&lt;div style=&quot;text-align: left&quot;&gt;&lt;div style=&quot;text-align: center&quot;&gt;&lt;b&gt;%c4Description%&lt;/b&gt;&lt;/div&gt;" id="ZEv1Dd9s7aSN1UI1H0AQ-1">
          <mxCell style="endArrow=blockThin;html=1;fontSize=10;fontColor=#404040;strokeWidth=1;endFill=1;strokeColor=#828282;elbow=vertical;metaEdit=1;endSize=14;startSize=14;jumpStyle=arc;jumpSize=16;rounded=0;edgeStyle=orthogonalEdgeStyle;exitX=0.5;exitY=0;exitDx=0;exitDy=0;exitPerimeter=0;entryX=0.5;entryY=1;entryDx=0;entryDy=0;entryPerimeter=0;" edge="1" parent="1" source="QLqF1LJBldQI-wPWbWfx-3" target="QLqF1LJBldQI-wPWbWfx-1">
            <mxGeometry width="240" relative="1" as="geometry">
              <mxPoint x="1200" y="380" as="sourcePoint" />
              <mxPoint x="1440" y="380" as="targetPoint" />
            </mxGeometry>
          </mxCell>
        </object>
        <object placeholders="1" c4Type="Relationship" c4Description="Передача ставок по депозитам" label="&lt;div style=&quot;text-align: left&quot;&gt;&lt;div style=&quot;text-align: center&quot;&gt;&lt;b&gt;%c4Description%&lt;/b&gt;&lt;/div&gt;" id="ZEv1Dd9s7aSN1UI1H0AQ-2">
          <mxCell style="endArrow=blockThin;html=1;fontSize=10;fontColor=#404040;strokeWidth=1;endFill=1;strokeColor=#828282;elbow=vertical;metaEdit=1;endSize=14;startSize=14;jumpStyle=arc;jumpSize=16;rounded=0;edgeStyle=orthogonalEdgeStyle;exitX=1;exitY=0.5;exitDx=0;exitDy=0;exitPerimeter=0;entryX=0;entryY=0.5;entryDx=0;entryDy=0;entryPerimeter=0;" edge="1" parent="1" source="QLqF1LJBldQI-wPWbWfx-2" target="QLqF1LJBldQI-wPWbWfx-3">
            <mxGeometry width="240" relative="1" as="geometry">
              <mxPoint x="800" y="360" as="sourcePoint" />
              <mxPoint x="1040" y="360" as="targetPoint" />
            </mxGeometry>
          </mxCell>
        </object>
      </root>
    </mxGraphModel>
  </diagram>
  <diagram id="pGAoteQ4QYuTTx7H-H2-" name="Containers">
    <mxGraphModel dx="3649" dy="1636" grid="1" gridSize="10" guides="1" tooltips="1" connect="1" arrows="1" fold="1" page="1" pageScale="1" pageWidth="827" pageHeight="1169" math="0" shadow="0">
      <root>
        <mxCell id="0" />
        <mxCell id="1" parent="0" />
        <object placeholders="1" c4Name="АБС" c4Type="SystemScopeBoundary" c4Application="Software System" label="&lt;font style=&quot;font-size: 16px&quot;&gt;&lt;b&gt;&lt;div style=&quot;text-align: left&quot;&gt;%c4Name%&lt;/div&gt;&lt;/b&gt;&lt;/font&gt;&lt;div style=&quot;text-align: left&quot;&gt;[%c4Application%]&lt;/div&gt;" id="2GLxZKP0nGG0ndINrdFv-32">
          <mxCell style="rounded=1;fontSize=11;whiteSpace=wrap;html=1;dashed=1;arcSize=20;fillColor=none;strokeColor=#666666;fontColor=#333333;labelBackgroundColor=none;align=left;verticalAlign=bottom;labelBorderColor=none;spacingTop=0;spacing=10;dashPattern=8 4;metaEdit=1;rotatable=0;perimeter=rectanglePerimeter;noLabel=0;labelPadding=0;allowArrows=0;connectable=0;expand=0;recursiveResize=0;editable=1;pointerEvents=0;absoluteArcSize=1;points=[[0.25,0,0],[0.5,0,0],[0.75,0,0],[1,0.25,0],[1,0.5,0],[1,0.75,0],[0.75,1,0],[0.5,1,0],[0.25,1,0],[0,0.75,0],[0,0.5,0],[0,0.25,0]];" parent="1" vertex="1">
            <mxGeometry x="-670" y="460" width="690" height="750" as="geometry" />
          </mxCell>
        </object>
        <object placeholders="1" c4Name="БД" c4Type="Container" c4Technology="Oracle Database" c4Description="База данных АБС" label="&lt;font style=&quot;font-size: 16px&quot;&gt;&lt;b&gt;%c4Name%&lt;/b&gt;&lt;/font&gt;&lt;div&gt;[%c4Type%:&amp;nbsp;%c4Technology%]&lt;/div&gt;&lt;br&gt;&lt;div&gt;&lt;font style=&quot;font-size: 11px&quot;&gt;&lt;font color=&quot;#E6E6E6&quot;&gt;%c4Description%&lt;/font&gt;&lt;/div&gt;" id="2GLxZKP0nGG0ndINrdFv-2">
          <mxCell style="shape=cylinder3;size=15;whiteSpace=wrap;html=1;boundedLbl=1;rounded=0;labelBackgroundColor=none;fillColor=#23A2D9;fontSize=12;fontColor=#ffffff;align=center;strokeColor=#0E7DAD;metaEdit=1;points=[[0.5,0,0],[1,0.25,0],[1,0.5,0],[1,0.75,0],[0.5,1,0],[0,0.75,0],[0,0.5,0],[0,0.25,0]];resizable=0;" parent="1" vertex="1">
            <mxGeometry x="-630" y="975" width="240" height="120" as="geometry" />
          </mxCell>
        </object>
        <mxCell id="2GLxZKP0nGG0ndINrdFv-3" style="edgeStyle=orthogonalEdgeStyle;rounded=0;orthogonalLoop=1;jettySize=auto;html=1;entryX=0.5;entryY=0;entryDx=0;entryDy=0;entryPerimeter=0;exitX=0.5;exitY=1;exitDx=0;exitDy=0;exitPerimeter=0;" parent="1" source="2GLxZKP0nGG0ndINrdFv-33" target="2GLxZKP0nGG0ndINrdFv-2" edge="1">
          <mxGeometry relative="1" as="geometry">
            <mxPoint x="-230" y="830" as="sourcePoint" />
          </mxGeometry>
        </mxCell>
        <mxCell id="2GLxZKP0nGG0ndINrdFv-6" value="SQL" style="edgeLabel;html=1;align=center;verticalAlign=middle;resizable=0;points=[];" parent="2GLxZKP0nGG0ndINrdFv-3" vertex="1" connectable="0">
          <mxGeometry x="0.0857" y="-2" relative="1" as="geometry">
            <mxPoint as="offset" />
          </mxGeometry>
        </mxCell>
        <object placeholders="1" c4Name="БД" c4Type="Container" c4Technology="PostgreSQL" c4Description="База данных системы кол-центра" label="&lt;font style=&quot;font-size: 16px&quot;&gt;&lt;b&gt;%c4Name%&lt;/b&gt;&lt;/font&gt;&lt;div&gt;[%c4Type%:&amp;nbsp;%c4Technology%]&lt;/div&gt;&lt;br&gt;&lt;div&gt;&lt;font style=&quot;font-size: 11px&quot;&gt;&lt;font color=&quot;#E6E6E6&quot;&gt;%c4Description%&lt;/font&gt;&lt;/div&gt;" id="2GLxZKP0nGG0ndINrdFv-5">
          <mxCell style="shape=cylinder3;size=15;whiteSpace=wrap;html=1;boundedLbl=1;rounded=0;labelBackgroundColor=none;fillColor=#23A2D9;fontSize=12;fontColor=#ffffff;align=center;strokeColor=#0E7DAD;metaEdit=1;points=[[0.5,0,0],[1,0.25,0],[1,0.5,0],[1,0.75,0],[0.5,1,0],[0,0.75,0],[0,0.5,0],[0,0.25,0]];resizable=0;" parent="1" vertex="1">
            <mxGeometry x="819" y="1010" width="240" height="120" as="geometry" />
          </mxCell>
        </object>
        <mxCell id="2GLxZKP0nGG0ndINrdFv-7" style="edgeStyle=orthogonalEdgeStyle;rounded=0;orthogonalLoop=1;jettySize=auto;html=1;entryX=0.5;entryY=0;entryDx=0;entryDy=0;entryPerimeter=0;exitX=0.5;exitY=1;exitDx=0;exitDy=0;exitPerimeter=0;" parent="1" source="2GLxZKP0nGG0ndINrdFv-18" target="2GLxZKP0nGG0ndINrdFv-5" edge="1">
          <mxGeometry relative="1" as="geometry">
            <mxPoint x="949" y="916.9999999999995" as="sourcePoint" />
          </mxGeometry>
        </mxCell>
        <mxCell id="2GLxZKP0nGG0ndINrdFv-8" value="SQL" style="edgeLabel;html=1;align=center;verticalAlign=middle;resizable=0;points=[];" parent="2GLxZKP0nGG0ndINrdFv-7" vertex="1" connectable="0">
          <mxGeometry x="-0.2333" y="-1" relative="1" as="geometry">
            <mxPoint as="offset" />
          </mxGeometry>
        </mxCell>
        <object placeholders="1" c4Name="Партнерский кол-центр" c4Type="Software System" c4Description="" label="&lt;font style=&quot;font-size: 16px&quot;&gt;&lt;b&gt;%c4Name%&lt;/b&gt;&lt;/font&gt;&lt;div&gt;[%c4Type%]&lt;/div&gt;&lt;br&gt;&lt;div&gt;&lt;font style=&quot;font-size: 11px&quot;&gt;&lt;font color=&quot;#cccccc&quot;&gt;%c4Description%&lt;/font&gt;&lt;/div&gt;" id="2GLxZKP0nGG0ndINrdFv-10">
          <mxCell style="rounded=1;whiteSpace=wrap;html=1;labelBackgroundColor=none;fillColor=#8C8496;fontColor=#ffffff;align=center;arcSize=10;strokeColor=#736782;metaEdit=1;resizable=0;points=[[0.25,0,0],[0.5,0,0],[0.75,0,0],[1,0.25,0],[1,0.5,0],[1,0.75,0],[0.75,1,0],[0.5,1,0],[0.25,1,0],[0,0.75,0],[0,0.5,0],[0,0.25,0]];" parent="1" vertex="1">
            <mxGeometry x="440" y="90" width="240" height="120" as="geometry" />
          </mxCell>
        </object>
        <object placeholders="1" c4Name="Кол-центр" c4Type="Container" c4Technology="Java, Spring Boot" c4Description="Бэкенд системы кол-центра" label="&lt;font style=&quot;font-size: 16px&quot;&gt;&lt;b&gt;%c4Name%&lt;/b&gt;&lt;/font&gt;&lt;div&gt;[%c4Type%: %c4Technology%]&lt;/div&gt;&lt;br&gt;&lt;div&gt;&lt;font style=&quot;font-size: 11px&quot;&gt;&lt;font color=&quot;#E6E6E6&quot;&gt;%c4Description%&lt;/font&gt;&lt;/div&gt;" id="2GLxZKP0nGG0ndINrdFv-18">
          <mxCell style="rounded=1;whiteSpace=wrap;html=1;fontSize=11;labelBackgroundColor=none;fillColor=#23A2D9;fontColor=#ffffff;align=center;arcSize=10;strokeColor=#0E7DAD;metaEdit=1;resizable=0;points=[[0.25,0,0],[0.5,0,0],[0.75,0,0],[1,0.25,0],[1,0.5,0],[1,0.75,0],[0.75,1,0],[0.5,1,0],[0.25,1,0],[0,0.75,0],[0,0.5,0],[0,0.25,0]];" parent="1" vertex="1">
            <mxGeometry x="819" y="745" width="240" height="120" as="geometry" />
          </mxCell>
        </object>
        <object placeholders="1" c4Name="Микросервис &#xa;взаимодействия&#xa;с АБС" c4Type="Container" c4Technology="Java, Spring Boot" c4Description="Получение информации о ставках,&#xa;передача заявок на депозит" label="&lt;font style=&quot;font-size: 16px&quot;&gt;&lt;b&gt;%c4Name%&lt;/b&gt;&lt;/font&gt;&lt;div&gt;[%c4Type%:&amp;nbsp;%c4Technology%]&lt;/div&gt;&lt;br&gt;&lt;div&gt;&lt;font style=&quot;font-size: 11px&quot;&gt;&lt;font color=&quot;#E6E6E6&quot;&gt;%c4Description%&lt;/font&gt;&lt;/div&gt;" id="2GLxZKP0nGG0ndINrdFv-23">
          <mxCell style="shape=hexagon;size=50;perimeter=hexagonPerimeter2;whiteSpace=wrap;html=1;fixedSize=1;rounded=1;labelBackgroundColor=none;fillColor=#FF6666;fontSize=12;fontColor=#ffffff;align=center;strokeColor=#0E7DAD;metaEdit=1;points=[[0.5,0,0],[1,0.25,0],[1,0.5,0],[1,0.75,0],[0.5,1,0],[0,0.75,0],[0,0.5,0],[0,0.25,0]];resizable=0;" parent="1" vertex="1">
            <mxGeometry x="460" y="720" width="200" height="170" as="geometry" />
          </mxCell>
        </object>
        <object placeholders="1" c4Name="Кол-центр" c4Type="SystemScopeBoundary" c4Application="Software System" label="&lt;font style=&quot;font-size: 16px&quot;&gt;&lt;b&gt;&lt;div style=&quot;text-align: left&quot;&gt;%c4Name%&lt;/div&gt;&lt;/b&gt;&lt;/font&gt;&lt;div style=&quot;text-align: left&quot;&gt;[%c4Application%]&lt;/div&gt;" id="2GLxZKP0nGG0ndINrdFv-25">
          <mxCell style="rounded=1;fontSize=11;whiteSpace=wrap;html=1;dashed=1;arcSize=20;fillColor=none;strokeColor=#666666;fontColor=#333333;labelBackgroundColor=none;align=left;verticalAlign=bottom;labelBorderColor=none;spacingTop=0;spacing=10;dashPattern=8 4;metaEdit=1;rotatable=0;perimeter=rectanglePerimeter;noLabel=0;labelPadding=0;allowArrows=0;connectable=0;expand=0;recursiveResize=0;editable=1;pointerEvents=0;absoluteArcSize=1;points=[[0.25,0,0],[0.5,0,0],[0.75,0,0],[1,0.25,0],[1,0.5,0],[1,0.75,0],[0.75,1,0],[0.5,1,0],[0.25,1,0],[0,0.75,0],[0,0.5,0],[0,0.25,0]];" parent="1" vertex="1">
            <mxGeometry x="320" y="250" width="760" height="970" as="geometry" />
          </mxCell>
        </object>
        <object placeholders="1" c4Name="БД микросервиса" c4Type="Container" c4Technology="PostgreSQL" c4Description="База данных микросервиса депозитной функциональности" label="&lt;font style=&quot;font-size: 16px&quot;&gt;&lt;b&gt;%c4Name%&lt;/b&gt;&lt;/font&gt;&lt;div&gt;[%c4Type%:&amp;nbsp;%c4Technology%]&lt;/div&gt;&lt;br&gt;&lt;div&gt;&lt;font style=&quot;font-size: 11px&quot;&gt;&lt;font color=&quot;#E6E6E6&quot;&gt;%c4Description%&lt;/font&gt;&lt;/div&gt;" id="2GLxZKP0nGG0ndINrdFv-30">
          <mxCell style="shape=cylinder3;size=15;whiteSpace=wrap;html=1;boundedLbl=1;rounded=0;labelBackgroundColor=none;fillColor=#FF6666;fontSize=12;fontColor=#ffffff;align=center;strokeColor=#0E7DAD;metaEdit=1;points=[[0.5,0,0],[1,0.25,0],[1,0.5,0],[1,0.75,0],[0.5,1,0],[0,0.75,0],[0,0.5,0],[0,0.25,0]];resizable=0;" parent="1" vertex="1">
            <mxGeometry x="440" y="1010" width="240" height="120" as="geometry" />
          </mxCell>
        </object>
        <object placeholders="1" c4Type="Relationship" c4Description="SQL" label="&lt;div style=&quot;text-align: left&quot;&gt;&lt;div style=&quot;text-align: center&quot;&gt;&lt;b&gt;%c4Description%&lt;/b&gt;&lt;/div&gt;" id="2GLxZKP0nGG0ndINrdFv-31">
          <mxCell style="endArrow=blockThin;html=1;fontSize=10;fontColor=#404040;strokeWidth=1;endFill=1;strokeColor=#828282;elbow=vertical;metaEdit=1;endSize=14;startSize=14;jumpStyle=arc;jumpSize=16;rounded=0;edgeStyle=orthogonalEdgeStyle;exitX=0.5;exitY=1;exitDx=0;exitDy=0;exitPerimeter=0;entryX=0.5;entryY=0;entryDx=0;entryDy=0;entryPerimeter=0;" parent="1" source="2GLxZKP0nGG0ndINrdFv-23" target="2GLxZKP0nGG0ndINrdFv-30" edge="1">
            <mxGeometry width="240" relative="1" as="geometry">
              <mxPoint x="540" y="1050" as="sourcePoint" />
              <mxPoint x="780" y="1050" as="targetPoint" />
            </mxGeometry>
          </mxCell>
        </object>
        <object placeholders="1" c4Name="Клиент АБС" c4Type="Container" c4Technology="Delphi" c4Description="Автоматизированная банковская система" label="&lt;font style=&quot;font-size: 16px&quot;&gt;&lt;b&gt;%c4Name%&lt;/b&gt;&lt;/font&gt;&lt;div&gt;[%c4Type%: %c4Technology%]&lt;/div&gt;&lt;br&gt;&lt;div&gt;&lt;font style=&quot;font-size: 11px&quot;&gt;&lt;font color=&quot;#E6E6E6&quot;&gt;%c4Description%&lt;/font&gt;&lt;/div&gt;" id="2GLxZKP0nGG0ndINrdFv-33">
          <mxCell style="rounded=1;whiteSpace=wrap;html=1;fontSize=11;labelBackgroundColor=none;fillColor=#23A2D9;fontColor=#ffffff;align=center;arcSize=10;strokeColor=#0E7DAD;metaEdit=1;resizable=0;points=[[0.25,0,0],[0.5,0,0],[0.75,0,0],[1,0.25,0],[1,0.5,0],[1,0.75,0],[0.75,1,0],[0.5,1,0],[0.25,1,0],[0,0.75,0],[0,0.5,0],[0,0.25,0]];" parent="1" vertex="1">
            <mxGeometry x="-630" y="550" width="240" height="120" as="geometry" />
          </mxCell>
        </object>
        <object placeholders="1" c4Name="Очередь сообщений" c4Type="Container" c4Technology="Apache Kafka" c4Description="" label="&lt;font style=&quot;font-size: 16px&quot;&gt;&lt;b&gt;%c4Name%&lt;/b&gt;&lt;/font&gt;&lt;div&gt;[%c4Type%:&amp;nbsp;%c4Technology%]&lt;/div&gt;&lt;br&gt;&lt;div&gt;&lt;font style=&quot;font-size: 11px&quot;&gt;&lt;font color=&quot;#E6E6E6&quot;&gt;%c4Description%&lt;/font&gt;&lt;/div&gt;" id="2GLxZKP0nGG0ndINrdFv-34">
          <mxCell style="shape=cylinder3;size=15;direction=south;whiteSpace=wrap;html=1;boundedLbl=1;rounded=0;labelBackgroundColor=none;fillColor=#FF6666;fontSize=12;fontColor=#ffffff;align=center;strokeColor=#0E7DAD;metaEdit=1;points=[[0.5,0,0],[1,0.25,0],[1,0.5,0],[1,0.75,0],[0.5,1,0],[0,0.75,0],[0,0.5,0],[0,0.25,0]];resizable=0;" parent="1" vertex="1">
            <mxGeometry x="31" y="745" width="240" height="120" as="geometry" />
          </mxCell>
        </object>
        <object placeholders="1" c4Name="Микросервис &#xa;обслуживания депозитов" c4Type="Container" c4Technology="Java, Spring Boot" c4Description="Сервис принимает заявки по депозитам, передает информацию о ставках" label="&lt;font style=&quot;font-size: 16px&quot;&gt;&lt;b&gt;%c4Name%&lt;/b&gt;&lt;/font&gt;&lt;div&gt;[%c4Type%:&amp;nbsp;%c4Technology%]&lt;/div&gt;&lt;br&gt;&lt;div&gt;&lt;font style=&quot;font-size: 11px&quot;&gt;&lt;font color=&quot;#E6E6E6&quot;&gt;%c4Description%&lt;/font&gt;&lt;/div&gt;" id="2GLxZKP0nGG0ndINrdFv-35">
          <mxCell style="shape=hexagon;size=50;perimeter=hexagonPerimeter2;whiteSpace=wrap;html=1;fixedSize=1;rounded=1;labelBackgroundColor=none;fillColor=#FF6666;fontSize=12;fontColor=#ffffff;align=center;strokeColor=#0E7DAD;metaEdit=1;points=[[0.5,0,0],[1,0.25,0],[1,0.5,0],[1,0.75,0],[0.5,1,0],[0,0.75,0],[0,0.5,0],[0,0.25,0]];resizable=0;" parent="1" vertex="1">
            <mxGeometry x="-380" y="720" width="200" height="170" as="geometry" />
          </mxCell>
        </object>
        <object placeholders="1" c4Type="Relationship" c4Description="SQL" label="&lt;div style=&quot;text-align: left&quot;&gt;&lt;div style=&quot;text-align: center&quot;&gt;&lt;b&gt;%c4Description%&lt;/b&gt;&lt;/div&gt;" id="2GLxZKP0nGG0ndINrdFv-36">
          <mxCell style="endArrow=blockThin;html=1;fontSize=10;fontColor=#404040;strokeWidth=1;endFill=1;strokeColor=#828282;elbow=vertical;metaEdit=1;endSize=14;startSize=14;jumpStyle=arc;jumpSize=16;rounded=0;edgeStyle=orthogonalEdgeStyle;exitX=0;exitY=0.5;exitDx=0;exitDy=0;exitPerimeter=0;entryX=0.683;entryY=0.025;entryDx=0;entryDy=0;entryPerimeter=0;" parent="1" source="2GLxZKP0nGG0ndINrdFv-35" target="2GLxZKP0nGG0ndINrdFv-2" edge="1">
            <mxGeometry width="240" relative="1" as="geometry">
              <mxPoint x="-280" y="780" as="sourcePoint" />
              <mxPoint x="-40" y="780" as="targetPoint" />
            </mxGeometry>
          </mxCell>
        </object>
        <object placeholders="1" c4Type="Relationship" c4Technology="подписка" c4Description="Актуальная информация&#xa;по депозитам" label="&lt;div style=&quot;text-align: left&quot;&gt;&lt;div style=&quot;text-align: center&quot;&gt;&lt;b&gt;%c4Description%&lt;/b&gt;&lt;/div&gt;&lt;div style=&quot;text-align: center&quot;&gt;[%c4Technology%]&lt;/div&gt;&lt;/div&gt;" id="2GLxZKP0nGG0ndINrdFv-39">
          <mxCell style="endArrow=blockThin;html=1;fontSize=10;fontColor=#404040;strokeWidth=1;endFill=1;strokeColor=#828282;elbow=vertical;metaEdit=1;endSize=14;startSize=14;jumpStyle=arc;jumpSize=16;rounded=0;edgeStyle=orthogonalEdgeStyle;exitX=0;exitY=0.5;exitDx=0;exitDy=0;exitPerimeter=0;entryX=0.5;entryY=0;entryDx=0;entryDy=0;entryPerimeter=0;" parent="1" source="2GLxZKP0nGG0ndINrdFv-23" target="2GLxZKP0nGG0ndINrdFv-34" edge="1">
            <mxGeometry width="240" relative="1" as="geometry">
              <mxPoint x="200" y="780" as="sourcePoint" />
              <mxPoint x="440" y="780" as="targetPoint" />
            </mxGeometry>
          </mxCell>
        </object>
        <object placeholders="1" c4Type="Relationship" c4Technology="публикация" c4Description="Актуальная информация&#xa; по депозитам" label="&lt;div style=&quot;text-align: left&quot;&gt;&lt;div style=&quot;text-align: center&quot;&gt;&lt;b&gt;%c4Description%&lt;/b&gt;&lt;/div&gt;&lt;div style=&quot;text-align: center&quot;&gt;[%c4Technology%]&lt;/div&gt;&lt;/div&gt;" id="2GLxZKP0nGG0ndINrdFv-40">
          <mxCell style="endArrow=blockThin;html=1;fontSize=10;fontColor=#404040;strokeWidth=1;endFill=1;strokeColor=#828282;elbow=vertical;metaEdit=1;endSize=14;startSize=14;jumpStyle=arc;jumpSize=16;rounded=0;edgeStyle=orthogonalEdgeStyle;exitX=1;exitY=0.5;exitDx=0;exitDy=0;exitPerimeter=0;entryX=0.5;entryY=1;entryDx=0;entryDy=0;entryPerimeter=0;" parent="1" source="2GLxZKP0nGG0ndINrdFv-35" target="2GLxZKP0nGG0ndINrdFv-34" edge="1">
            <mxGeometry width="240" relative="1" as="geometry">
              <mxPoint x="-80" y="780" as="sourcePoint" />
              <mxPoint x="160" y="780" as="targetPoint" />
            </mxGeometry>
          </mxCell>
        </object>
        <object placeholders="1" c4Type="Relationship" c4Technology="SFTP" c4Description="Файл с информацией по депозитам" label="&lt;div style=&quot;text-align: left&quot;&gt;&lt;div style=&quot;text-align: center&quot;&gt;&lt;b&gt;%c4Description%&lt;/b&gt;&lt;/div&gt;&lt;div style=&quot;text-align: center&quot;&gt;[%c4Technology%]&lt;/div&gt;&lt;/div&gt;" id="pwSZLLmoOB-_A-iZB75m-2">
          <mxCell style="endArrow=blockThin;html=1;fontSize=10;fontColor=#404040;strokeWidth=1;endFill=1;strokeColor=#828282;elbow=vertical;metaEdit=1;endSize=14;startSize=14;jumpStyle=arc;jumpSize=16;rounded=0;edgeStyle=orthogonalEdgeStyle;exitX=0.5;exitY=0;exitDx=0;exitDy=0;exitPerimeter=0;entryX=0.5;entryY=1;entryDx=0;entryDy=0;entryPerimeter=0;" edge="1" parent="1" source="pwSZLLmoOB-_A-iZB75m-6" target="2GLxZKP0nGG0ndINrdFv-10">
            <mxGeometry x="-0.2157" width="240" relative="1" as="geometry">
              <mxPoint x="140" y="480" as="sourcePoint" />
              <mxPoint x="380" y="480" as="targetPoint" />
              <mxPoint as="offset" />
            </mxGeometry>
          </mxCell>
        </object>
        <object placeholders="1" c4Type="Relationship" c4Technology="JSON/HTTPS" c4Description="Информация по депозитам" label="&lt;div style=&quot;text-align: left&quot;&gt;&lt;div style=&quot;text-align: center&quot;&gt;&lt;b&gt;%c4Description%&lt;/b&gt;&lt;/div&gt;&lt;div style=&quot;text-align: center&quot;&gt;[%c4Technology%]&lt;/div&gt;&lt;/div&gt;" id="pwSZLLmoOB-_A-iZB75m-3">
          <mxCell style="endArrow=blockThin;html=1;fontSize=10;fontColor=#404040;strokeWidth=1;endFill=1;strokeColor=#828282;elbow=vertical;metaEdit=1;endSize=14;startSize=14;jumpStyle=arc;jumpSize=16;rounded=0;edgeStyle=orthogonalEdgeStyle;entryX=0.5;entryY=0;entryDx=0;entryDy=0;entryPerimeter=0;" edge="1" parent="1" source="2GLxZKP0nGG0ndINrdFv-33" target="2GLxZKP0nGG0ndINrdFv-35">
            <mxGeometry width="240" relative="1" as="geometry">
              <mxPoint x="-320" y="609.29" as="sourcePoint" />
              <mxPoint x="-80" y="609.29" as="targetPoint" />
            </mxGeometry>
          </mxCell>
        </object>
        <object placeholders="1" c4Type="Relationship" c4Technology="JSON/HTTPS" c4Description="Информация&#xa;по депозитам" label="&lt;div style=&quot;text-align: left&quot;&gt;&lt;div style=&quot;text-align: center&quot;&gt;&lt;b&gt;%c4Description%&lt;/b&gt;&lt;/div&gt;&lt;div style=&quot;text-align: center&quot;&gt;[%c4Technology%]&lt;/div&gt;&lt;/div&gt;" id="pwSZLLmoOB-_A-iZB75m-5">
          <mxCell style="endArrow=blockThin;html=1;fontSize=10;fontColor=#404040;strokeWidth=1;endFill=1;strokeColor=#828282;elbow=vertical;metaEdit=1;endSize=14;startSize=14;jumpStyle=arc;jumpSize=16;rounded=0;edgeStyle=orthogonalEdgeStyle;exitX=1;exitY=0.5;exitDx=0;exitDy=0;exitPerimeter=0;entryX=0;entryY=0.5;entryDx=0;entryDy=0;entryPerimeter=0;" edge="1" parent="1" source="2GLxZKP0nGG0ndINrdFv-23" target="2GLxZKP0nGG0ndINrdFv-18">
            <mxGeometry width="240" relative="1" as="geometry">
              <mxPoint x="620" y="900" as="sourcePoint" />
              <mxPoint x="860" y="900" as="targetPoint" />
            </mxGeometry>
          </mxCell>
        </object>
        <object placeholders="1" c4Name="Микросервис &#xa;взаимодействия&#xa;с партнерским кол-центром" c4Type="Container" c4Technology="Java, Spring Boot" c4Description="Получение информации о ставках,&#xa;формировани файла для партнерского кол-центра" label="&lt;font style=&quot;font-size: 16px&quot;&gt;&lt;b&gt;%c4Name%&lt;/b&gt;&lt;/font&gt;&lt;div&gt;[%c4Type%:&amp;nbsp;%c4Technology%]&lt;/div&gt;&lt;br&gt;&lt;div&gt;&lt;font style=&quot;font-size: 11px&quot;&gt;&lt;font color=&quot;#E6E6E6&quot;&gt;%c4Description%&lt;/font&gt;&lt;/div&gt;" id="pwSZLLmoOB-_A-iZB75m-6">
          <mxCell style="shape=hexagon;size=50;perimeter=hexagonPerimeter2;whiteSpace=wrap;html=1;fixedSize=1;rounded=1;labelBackgroundColor=none;fillColor=#FF6666;fontSize=12;fontColor=#ffffff;align=center;strokeColor=#0E7DAD;metaEdit=1;points=[[0.5,0,0],[1,0.25,0],[1,0.5,0],[1,0.75,0],[0.5,1,0],[0,0.75,0],[0,0.5,0],[0,0.25,0]];resizable=0;" vertex="1" parent="1">
            <mxGeometry x="460" y="500" width="200" height="170" as="geometry" />
          </mxCell>
        </object>
        <object placeholders="1" c4Type="Relationship" c4Technology="подписка" c4Description="Актуальная информация&#xa;по депозитам" label="&lt;div style=&quot;text-align: left&quot;&gt;&lt;div style=&quot;text-align: center&quot;&gt;&lt;b&gt;%c4Description%&lt;/b&gt;&lt;/div&gt;&lt;div style=&quot;text-align: center&quot;&gt;[%c4Technology%]&lt;/div&gt;&lt;/div&gt;" id="pwSZLLmoOB-_A-iZB75m-7">
          <mxCell style="endArrow=blockThin;html=1;fontSize=10;fontColor=#404040;strokeWidth=1;endFill=1;strokeColor=#828282;elbow=vertical;metaEdit=1;endSize=14;startSize=14;jumpStyle=arc;jumpSize=16;rounded=0;edgeStyle=orthogonalEdgeStyle;exitX=0;exitY=0.5;exitDx=0;exitDy=0;exitPerimeter=0;entryX=0.339;entryY=0.004;entryDx=0;entryDy=0;entryPerimeter=0;" edge="1" parent="1" source="pwSZLLmoOB-_A-iZB75m-6" target="2GLxZKP0nGG0ndINrdFv-34">
            <mxGeometry width="240" relative="1" as="geometry">
              <mxPoint x="470" y="815" as="sourcePoint" />
              <mxPoint x="281" y="815" as="targetPoint" />
            </mxGeometry>
          </mxCell>
        </object>
        <object placeholders="1" c4Name="БД микросервиса" c4Type="Container" c4Technology="PostgreSQL" c4Description="База данных микросервиса" label="&lt;font style=&quot;font-size: 16px&quot;&gt;&lt;b&gt;%c4Name%&lt;/b&gt;&lt;/font&gt;&lt;div&gt;[%c4Type%:&amp;nbsp;%c4Technology%]&lt;/div&gt;&lt;br&gt;&lt;div&gt;&lt;font style=&quot;font-size: 11px&quot;&gt;&lt;font color=&quot;#E6E6E6&quot;&gt;%c4Description%&lt;/font&gt;&lt;/div&gt;" id="pwSZLLmoOB-_A-iZB75m-8">
          <mxCell style="shape=cylinder3;size=15;whiteSpace=wrap;html=1;boundedLbl=1;rounded=0;labelBackgroundColor=none;fillColor=#FF6666;fontSize=12;fontColor=#ffffff;align=center;strokeColor=#0E7DAD;metaEdit=1;points=[[0.5,0,0],[1,0.25,0],[1,0.5,0],[1,0.75,0],[0.5,1,0],[0,0.75,0],[0,0.5,0],[0,0.25,0]];resizable=0;" vertex="1" parent="1">
            <mxGeometry x="819" y="525" width="240" height="120" as="geometry" />
          </mxCell>
        </object>
        <object placeholders="1" c4Type="Relationship" c4Description="SQL" label="&lt;div style=&quot;text-align: left&quot;&gt;&lt;div style=&quot;text-align: center&quot;&gt;&lt;b&gt;%c4Description%&lt;/b&gt;&lt;/div&gt;" id="pwSZLLmoOB-_A-iZB75m-9">
          <mxCell style="endArrow=blockThin;html=1;fontSize=10;fontColor=#404040;strokeWidth=1;endFill=1;strokeColor=#828282;elbow=vertical;metaEdit=1;endSize=14;startSize=14;jumpStyle=arc;jumpSize=16;rounded=0;edgeStyle=orthogonalEdgeStyle;exitX=1;exitY=0.5;exitDx=0;exitDy=0;exitPerimeter=0;entryX=0;entryY=0.5;entryDx=0;entryDy=0;entryPerimeter=0;" edge="1" parent="1" source="pwSZLLmoOB-_A-iZB75m-6" target="pwSZLLmoOB-_A-iZB75m-8">
            <mxGeometry width="240" relative="1" as="geometry">
              <mxPoint x="660" y="690" as="sourcePoint" />
              <mxPoint x="900" y="690" as="targetPoint" />
            </mxGeometry>
          </mxCell>
        </object>
      </root>
    </mxGraphModel>
  </diagram>
</mxfile>
